<?xml version="1.0" standalone="no"?>
<!DOCTYPE svg PUBLIC "-//W3C//DTD SVG 20010904//EN"
 "http://www.w3.org/TR/2001/REC-SVG-20010904/DTD/svg10.dtd">
<svg version="1.0" xmlns="http://www.w3.org/2000/svg"
 width="300.000000pt" height="161.000000pt" viewBox="0 0 300.000000 161.000000"
 preserveAspectRatio="xMidYMid meet">
<metadata>
Created by potrace 1.10, written by Peter Selinger 2001-2011
</metadata>
<g transform="translate(0.000000,161.000000) scale(0.100000,-0.100000)"
fill="#BBBBBB" stroke="#BBBBBB" stroke-width="30px">
<path d="M2322 1464 l-30 -37 -30 22 c-17 11 -35 21 -41 21 -22 0 -10 -19 24
-40 19 -12 35 -24 35 -27 0 -3 -8 -17 -19 -31 -36 -53 -43 -72 -26 -72 8 0 25
20 37 45 21 43 40 56 53 35 10 -17 63 -41 69 -31 3 5 -15 21 -40 36 -49 29
-49 27 -1 81 11 13 14 24 9 28 -6 3 -24 -10 -40 -30z"/>
<path d="M1940 1341 c0 -24 180 -27 188 -3 3 9 -20 12 -92 12 -53 0 -96 -4
-96 -9z"/>
<path d="M1804 1236 c-57 -25 -104 -112 -104 -191 0 -16 9 -49 20 -73 27 -59
73 -79 147 -63 58 14 90 35 116 79 25 44 3 51 -25 7 -28 -43 -72 -65 -131 -65
-68 0 -100 40 -100 125 0 57 30 124 65 149 54 38 113 4 101 -58 -3 -17 -11
-37 -17 -43 -16 -18 -105 -43 -112 -32 -9 14 -24 10 -24 -6 0 -25 29 -29 85
-11 64 20 86 43 92 98 8 73 -46 113 -113 84z"/>
<path d="M20 1089 c0 -38 32 -88 91 -143 90 -83 219 -149 219 -111 0 8 -7 15
-16 15 -27 0 -128 58 -182 106 -51 45 -92 107 -92 139 0 8 -4 15 -10 15 -5 0
-10 -9 -10 -21z"/>
<path d="M380 918 c-35 -95 -81 -209 -102 -252 -39 -82 -46 -110 -28 -121 6
-3 10 1 10 9 0 9 12 40 26 69 14 28 59 138 99 242 40 105 76 198 80 208 5 11
3 17 -7 17 -9 0 -36 -60 -78 -172z"/>
<path d="M785 928 c-22 -5 -55 -6 -74 -3 -25 5 -32 3 -29 -7 3 -9 22 -13 59
-12 108 3 194 13 197 23 5 14 -97 13 -153 -1z"/>
<path d="M1325 800 c-3 -5 -3 -14 0 -20 7 -11 396 -12 870 -1 165 4 355 3 423
-1 209 -13 235 -14 239 -2 10 28 -326 34 -1079 19 -320 -6 -421 -5 -432 4 -10
8 -16 9 -21 1z"/>
<path d="M848 717 c-112 -30 -146 -47 -95 -47 13 0 61 11 107 24 47 14 98 26
114 28 36 4 48 28 14 27 -12 0 -76 -15 -140 -32z"/>
<path d="M2753 679 c-14 -14 -18 -39 -6 -39 3 0 14 7 23 15 14 13 20 12 50 -3
32 -15 62 -64 48 -77 -2 -3 -19 2 -36 11 -46 22 -84 15 -96 -18 -7 -20 -5 -33
8 -52 22 -34 65 -34 103 -2 l29 25 44 -29 c24 -16 48 -27 52 -24 10 7 -38 51
-64 59 -11 4 -16 16 -15 41 1 26 -6 42 -29 65 -34 33 -92 48 -111 28z m64
-111 c38 -14 38 -23 1 -45 -35 -22 -58 -11 -58 27 0 33 8 36 57 18z"/>
<path d="M2370 656 c0 -7 11 -29 24 -48 23 -34 23 -35 5 -57 -11 -13 -16 -28
-12 -34 3 -6 14 1 26 17 l20 28 22 -28 c14 -17 26 -24 34 -20 9 6 5 16 -15 37
l-28 29 24 25 c29 31 18 46 -13 17 -31 -29 -36 -28 -53 13 -14 35 -34 47 -34
21z"/>
<path d="M1273 568 c-35 -39 -45 -68 -45 -137 0 -155 68 -276 161 -288 35 -5
40 -3 35 10 -3 9 -12 13 -19 11 -7 -3 -27 2 -43 10 -112 58 -155 349 -57 386
14 5 25 14 25 20 0 18 -36 10 -57 -12z"/>
<path d="M1466 554 c-19 -18 -20 -46 -5 -94 6 -19 14 -69 18 -110 5 -62 9 -75
24 -78 16 -3 17 -1 8 16 -6 11 -8 34 -5 50 4 19 -3 60 -17 107 -21 72 -22 78
-6 90 18 13 23 35 8 35 -5 0 -17 -7 -25 -16z"/>
<path d="M2238 553 c-26 -3 -38 -9 -38 -19 0 -12 7 -14 30 -10 17 3 44 9 60
12 17 3 30 10 30 15 0 9 -11 9 -82 2z"/>
<path d="M2580 544 c0 -3 9 -17 20 -31 27 -34 50 -115 50 -173 0 -88 -60 -139
-145 -123 -27 6 -29 5 -16 -10 27 -33 122 -15 154 29 49 66 32 225 -31 297
-15 17 -32 23 -32 11z"/>
<path d="M2029 449 c-31 -33 -55 -98 -46 -123 11 -29 55 -48 112 -48 45 -1 61
4 80 22 13 13 22 27 19 32 -4 5 -16 0 -28 -11 -29 -28 -114 -29 -146 -3 -21
17 -22 21 -11 55 14 40 62 87 91 87 9 0 23 -7 30 -15 10 -12 7 -20 -18 -45
-18 -18 -41 -30 -56 -30 -26 0 -35 -13 -16 -25 14 -8 74 19 99 46 26 28 27 51
3 72 -31 28 -80 22 -113 -14z"/>
<path d="M1746 444 c-3 -9 -6 -28 -6 -44 0 -22 -5 -30 -22 -33 l-23 -4 21 -8
c15 -5 24 -18 28 -44 3 -21 15 -46 26 -56 24 -21 26 -9 5 31 -24 46 -19 62 20
70 19 3 35 12 35 19 0 11 -8 11 -32 4 -18 -5 -35 -9 -37 -9 -5 0 5 51 14 73 5
12 3 17 -8 17 -8 0 -18 -7 -21 -16z"/>
</g>
</svg>
