<?xml version="1.0" standalone="no"?>
<!DOCTYPE svg PUBLIC "-//W3C//DTD SVG 20010904//EN"
 "http://www.w3.org/TR/2001/REC-SVG-20010904/DTD/svg10.dtd">
<svg version="1.0" xmlns="http://www.w3.org/2000/svg"
 width="300.000000pt" height="97.000000pt" viewBox="0 0 300.000000 97.000000"
 preserveAspectRatio="xMidYMid meet">
<metadata>
Created by potrace 1.10, written by Peter Selinger 2001-2011
</metadata>
<g transform="translate(0.000000,97.000000) scale(0.100000,-0.100000)"
fill="#BBBBBB" stroke="#BBBBBB" stroke-width="20px">
<path d="M2785 879 c-11 -4 -108 -8 -215 -8 -246 -1 -451 -16 -594 -42 -170
-32 -255 -34 -363 -10 -51 12 -106 21 -123 21 -37 0 -39 -18 -9 -87 29 -66 87
-256 95 -310 l7 -45 -56 37 c-31 21 -59 46 -62 56 -7 22 -25 26 -25 6 0 -24
117 -117 147 -117 7 0 13 11 13 24 0 38 -47 209 -86 313 -20 52 -33 98 -29
101 3 3 56 -4 119 -16 133 -26 190 -27 288 -7 159 34 295 47 593 56 171 5 324
11 340 13 17 2 36 4 43 5 6 0 12 4 12 9 0 10 -70 11 -95 1z"/>
<path d="M1810 695 c-10 -12 -10 -15 2 -15 8 0 19 5 25 11 8 8 17 8 32 0 25
-14 26 -28 6 -55 -22 -30 -19 -33 35 -45 62 -13 70 -14 70 -1 0 5 -22 12 -50
16 l-50 7 17 28 c16 27 16 29 -2 49 -21 24 -67 26 -85 5z"/>
<path d="M1620 637 c0 -13 7 -46 15 -73 19 -62 19 -64 -1 -64 -13 0 -12 -5 8
-22 45 -42 140 -62 166 -36 53 53 -72 143 -128 93 -16 -15 -18 -12 -29 29 -6
25 -11 56 -11 70 0 14 -4 26 -10 26 -5 0 -10 -11 -10 -23z m163 -135 c33 -31
34 -39 3 -53 -19 -9 -33 -7 -70 10 -44 19 -46 22 -35 43 24 45 53 45 102 0z"/>
<path d="M1255 631 c-3 -11 -1 -29 5 -41 11 -21 11 -21 -37 -36 -7 -2 -13 -8
-13 -13 0 -7 9 -7 27 0 38 14 50 6 58 -40 4 -23 12 -44 17 -47 11 -7 5 55 -8
90 -4 11 0 16 14 16 12 0 24 5 28 12 5 8 -2 9 -24 5 -25 -5 -34 -2 -43 14 -6
11 -8 27 -5 34 3 8 1 17 -4 20 -5 3 -11 -4 -15 -14z"/>
<path d="M2190 591 c0 -94 39 -128 112 -97 12 6 18 0 23 -26 10 -45 24 -70 36
-62 6 4 6 10 1 17 -18 22 -31 86 -19 91 9 3 8 7 -2 14 -9 7 -12 27 -10 66 3
34 0 55 -6 53 -5 -2 -11 -33 -13 -70 l-3 -66 -36 -7 c-48 -9 -63 12 -63 88 0
32 -4 58 -10 58 -6 0 -10 -26 -10 -59z"/>
<path d="M2742 604 c-46 -32 -47 -125 -1 -142 26 -10 79 -3 79 10 0 6 -14 8
-34 4 -68 -13 -88 61 -31 111 29 25 18 39 -13 17z"/>
<path d="M2586 568 c-9 -21 -16 -42 -16 -47 0 -18 -44 -41 -77 -41 -26 0 -33
4 -33 19 0 24 41 57 81 66 16 4 27 10 24 15 -7 11 -55 -3 -89 -25 -52 -34 -42
-95 16 -95 45 0 86 26 95 61 l8 31 24 -56 c12 -31 27 -53 32 -50 5 3 4 15 -3
27 -6 12 -19 47 -29 77 l-17 55 -16 -37z"/>
<path d="M935 573 c24 -59 45 -129 45 -149 0 -15 6 -23 18 -22 9 0 40 -3 67
-7 55 -7 98 9 103 37 2 9 -11 32 -29 53 -27 31 -37 36 -68 33 -27 -2 -40 -11
-58 -37 -14 -20 -23 -27 -23 -18 0 27 -41 127 -52 127 -6 0 -7 -8 -3 -17z
m205 -114 c23 -41 -24 -60 -108 -43 -31 6 -31 7 -17 35 8 15 25 35 36 43 19
13 25 13 50 0 16 -8 33 -23 39 -35z"/>
<path d="M100 544 c0 -5 25 -40 54 -78 l53 -68 -43 -71 c-24 -38 -41 -74 -38
-79 8 -12 6 -14 51 64 l40 67 49 -67 c48 -65 73 -81 82 -53 3 8 0 11 -6 7 -11
-7 -111 109 -112 130 0 5 22 38 50 72 27 34 45 64 40 67 -5 3 -31 -23 -56 -58
l-47 -65 -42 57 c-43 58 -75 90 -75 75z"/>
<path d="M1990 520 c-31 -10 -30 -10 53 -13 37 -1 67 1 67 6 0 4 -8 7 -19 7
-10 0 -31 2 -47 4 -16 3 -40 1 -54 -4z"/>
<path d="M530 440 c0 -6 29 -10 66 -10 41 0 63 4 59 10 -3 6 -33 10 -66 10
-33 0 -59 -4 -59 -10z"/>
<path d="M760 432 c0 -5 7 -13 16 -16 26 -10 134 -7 134 4 0 6 -26 10 -59 10
-33 0 -66 3 -75 6 -9 3 -16 2 -16 -4z"/>
<path d="M1350 394 c-19 -7 -56 -16 -82 -20 -46 -6 -68 -24 -30 -24 23 0 130
28 150 39 26 14 -1 18 -38 5z"/>
<path d="M2385 339 c-77 -25 -134 -28 -407 -19 -524 17 -995 13 -1035 -9 -37
-19 -26 -30 16 -15 29 10 99 13 251 14 116 0 216 2 221 6 5 3 141 1 302 -5
475 -19 573 -18 636 3 55 19 80 19 294 0 41 -4 67 -3 67 3 0 9 -46 14 -250 28
-36 3 -78 0 -95 -6z"/>
<path d="M585 285 c-38 -8 -54 -15 -44 -19 9 -4 36 -2 60 3 24 6 59 11 77 11
17 0 32 5 32 10 0 13 -48 11 -125 -5z"/>
<path d="M1408 235 c-16 -9 -28 -20 -28 -25 0 -14 7 -13 36 6 48 32 134 4 173
-56 l16 -24 -25 17 c-34 24 -67 21 -85 -7 -17 -26 -12 -50 18 -83 26 -30 42
-29 74 3 23 23 27 24 35 10 5 -9 14 -16 20 -16 6 0 4 10 -5 23 -8 13 -20 43
-27 66 -8 30 -21 48 -48 66 -48 32 -117 41 -154 20z m187 -115 c9 -15 -12 -48
-37 -56 -42 -13 -79 63 -41 85 18 9 65 -8 78 -29z"/>
<path d="M1790 203 c0 -61 -12 -82 -34 -64 -19 16 -21 67 -3 74 6 2 9 8 5 12
-14 15 -38 -5 -38 -30 0 -34 27 -85 44 -85 19 0 36 23 38 54 1 14 5 26 8 26 3
0 28 -22 55 -50 26 -27 53 -47 58 -43 5 3 -18 33 -52 67 -34 34 -61 67 -61 74
0 6 -4 12 -10 12 -5 0 -10 -21 -10 -47z"/>
</g>
</svg>
