<?xml version="1.0" standalone="no"?>
<!DOCTYPE svg PUBLIC "-//W3C//DTD SVG 20010904//EN"
 "http://www.w3.org/TR/2001/REC-SVG-20010904/DTD/svg10.dtd">
<svg version="1.0" xmlns="http://www.w3.org/2000/svg"
 width="300.000000pt" height="100.000000pt" viewBox="0 0 300.000000 100.000000"
 preserveAspectRatio="xMidYMid meet">
<metadata>
Created by potrace 1.10, written by Peter Selinger 2001-2011
</metadata>
<g transform="translate(0.000000,100.000000) scale(0.100000,-0.100000)"
fill="#BBBBBB" stroke="#BBBBBB" stroke-width="30px">
<path d="M233 893 c-34 -7 -90 -76 -107 -134 -18 -60 -21 -109 -6 -109 6 0 10
15 10 34 0 78 58 180 109 191 52 11 66 -5 100 -122 38 -134 55 -248 46 -327
-11 -101 -9 -99 -62 -65 -59 37 -101 38 -136 3 -38 -38 -43 -76 -17 -129 25
-51 61 -75 113 -75 41 0 64 23 81 80 7 23 16 41 20 41 17 1 129 -139 152 -190
30 -65 44 -61 19 6 -11 27 -49 81 -94 132 -69 78 -76 89 -70 116 4 17 7 78 8
136 1 88 -4 127 -28 220 -36 143 -44 163 -73 183 -23 16 -26 17 -65 9z m89
-553 c44 -29 46 -32 37 -63 -18 -63 -32 -89 -56 -98 -53 -20 -133 47 -133 112
0 15 9 38 21 53 28 36 73 35 131 -4z"/>
<path d="M1522 820 c-33 -8 -77 -41 -92 -70 -13 -25 -21 -90 -12 -90 5 0 12
17 16 38 23 145 214 144 282 -1 20 -44 24 -68 24 -150 l0 -97 -39 6 c-54 9
-104 -10 -145 -57 -48 -52 -49 -93 -3 -137 72 -70 146 -24 187 116 7 23 16 42
20 42 22 0 78 -82 90 -129 7 -31 16 -49 21 -44 12 12 -23 117 -47 144 -10 11
-30 27 -44 35 -24 15 -25 18 -25 127 0 90 -4 119 -19 147 -31 59 -77 99 -130
115 -27 8 -50 15 -50 14 -1 -1 -16 -5 -34 -9z m204 -421 c-14 -87 -78 -164
-127 -152 -27 7 -59 51 -59 80 0 34 36 82 74 99 17 7 51 13 75 14 l44 0 -7
-41z"/>
<path d="M2709 784 c-20 -48 -23 -145 -6 -186 25 -59 88 -85 156 -63 14 4 16
-7 13 -101 -2 -73 0 -104 7 -99 7 4 11 47 11 108 l1 102 32 20 c17 11 33 29
36 40 3 17 -1 16 -22 -7 -15 -16 -30 -28 -36 -28 -10 0 -6 51 13 148 7 35 9
65 4 68 -13 8 -18 -14 -31 -127 l-12 -103 -40 -8 c-50 -11 -91 5 -110 43 -18
33 -20 133 -4 178 14 41 4 54 -12 15z"/>
<path d="M2220 598 c-52 -16 -97 -32 -99 -34 -15 -14 16 -9 99 15 145 43 166
45 189 22 22 -22 40 -9 21 14 -20 24 -105 17 -210 -17z"/>
<path d="M997 593 c-10 -9 -8 -101 2 -145 l9 -38 -70 0 c-43 0 -67 -4 -63 -10
3 -5 35 -10 70 -10 45 0 64 -4 68 -14 3 -8 14 -62 23 -120 10 -58 21 -106 26
-106 13 0 10 39 -12 136 -11 49 -20 92 -20 96 0 4 36 10 80 14 102 8 95 19
-10 15 l-78 -3 -7 59 c-4 32 -8 63 -9 68 -2 6 1 22 5 38 7 25 1 35 -14 20z"/>
<path d="M2460 380 c-25 -5 -74 -18 -109 -29 -36 -12 -82 -24 -103 -27 -38 -7
-53 -24 -20 -24 9 0 62 13 117 29 55 17 117 33 138 36 20 3 37 10 37 15 0 6
-3 9 -7 9 -5 -1 -28 -5 -53 -9z"/>
</g>
</svg>
