<?xml version="1.0" standalone="no"?>
<!DOCTYPE svg PUBLIC "-//W3C//DTD SVG 20010904//EN"
 "http://www.w3.org/TR/2001/REC-SVG-20010904/DTD/svg10.dtd">
<svg version="1.0" xmlns="http://www.w3.org/2000/svg"
 width="300.000000pt" height="115.000000pt" viewBox="0 0 300.000000 115.000000"
 preserveAspectRatio="xMidYMid meet">
<metadata>
Created by potrace 1.10, written by Peter Selinger 2001-2011
</metadata>
<g transform="translate(0.000000,115.000000) scale(0.100000,-0.100000)"
fill="#BBBBBB" stroke="#BBBBBB" stroke-width="30px">
<path d="M307 1038 c3 -29 12 -84 20 -123 47 -215 15 -385 -71 -385 -66 0
-116 65 -116 151 0 45 4 55 34 85 22 22 47 35 75 40 22 4 41 11 41 16 0 11
-67 0 -102 -19 -80 -40 -91 -167 -21 -243 57 -64 124 -63 167 3 9 12 21 60 28
107 l13 85 28 -91 c31 -104 48 -127 75 -100 16 17 16 18 -4 12 -19 -6 -25 5
-67 126 -31 89 -51 171 -62 246 -17 120 -22 142 -36 142 -4 0 -6 -24 -2 -52z"/>
<path d="M2821 985 c-17 -20 -31 -41 -31 -48 -1 -7 -14 3 -30 22 -39 46 -48
35 -11 -14 27 -37 28 -39 15 -83 -17 -54 -18 -82 -4 -82 6 0 10 13 10 29 0 16
5 42 10 57 l11 27 27 -25 c28 -27 91 -68 105 -68 17 0 5 18 -15 24 -13 4 -43
24 -67 45 -48 43 -49 58 -4 111 36 44 22 48 -16 5z"/>
<path d="M669 923 c-37 -97 -127 -405 -159 -543 -22 -91 -50 -203 -64 -250
-22 -75 -25 -103 -12 -89 9 9 56 183 92 335 30 132 108 391 158 532 16 45 2
60 -15 15z"/>
<path d="M1248 933 c-42 -48 -56 -270 -24 -397 22 -92 111 -294 144 -328 19
-21 35 -28 63 -28 48 0 69 8 69 27 0 12 -3 13 -15 3 -20 -17 -80 -17 -100 0
-9 8 -37 56 -61 109 -92 197 -118 330 -94 493 13 95 30 131 51 111 21 -21 33
-15 14 7 -22 24 -28 25 -47 3z"/>
<path d="M1620 921 c0 -5 16 -30 35 -55 34 -45 34 -46 23 -101 -8 -42 -8 -59
1 -68 8 -8 11 -2 11 23 0 19 3 44 6 56 5 20 7 20 35 -9 17 -16 33 -27 36 -24
3 4 -8 20 -26 36 -34 32 -37 48 -17 104 8 20 10 40 5 42 -4 3 -15 -16 -22 -42
l-14 -48 -29 47 c-27 45 -44 59 -44 39z"/>
<path d="M1940 808 c65 -137 86 -200 96 -287 11 -99 -34 -241 -76 -241 -11 0
-20 -5 -20 -11 0 -6 10 -9 22 -7 31 4 62 55 82 132 18 72 11 164 -20 261 -23
70 -122 275 -133 275 -5 0 17 -55 49 -122z"/>
<path d="M2558 741 c-27 -24 -32 -36 -36 -88 -5 -77 10 -124 54 -163 37 -32
66 -37 100 -17 31 18 108 106 100 114 -4 4 -30 -18 -57 -50 -38 -43 -57 -57
-78 -57 -60 0 -104 62 -105 151 -1 65 18 100 64 119 42 18 64 4 68 -43 6 -68
-43 -125 -96 -112 -26 6 -26 5 -10 -11 17 -17 20 -17 53 -1 64 30 99 132 59
171 -25 26 -79 20 -116 -13z"/>
<path d="M1443 731 c-18 -11 -36 -33 -40 -48 -23 -85 14 -210 79 -268 36 -33
45 -37 79 -32 47 6 94 39 115 79 21 41 10 48 -15 8 -40 -67 -114 -89 -164 -50
-44 35 -82 126 -82 198 0 57 3 66 28 88 30 26 75 32 95 12 18 -18 14 -80 -6
-104 -23 -29 -57 -45 -76 -38 -9 3 -16 1 -16 -5 0 -33 65 -15 104 28 24 26 32
100 14 124 -21 28 -77 32 -115 8z"/>
<path d="M2238 632 c-38 -2 -68 -7 -68 -11 0 -7 113 -5 145 3 25 6 -17 11 -77
8z"/>
<path d="M715 538 c4 -18 15 -51 25 -73 26 -61 33 -116 21 -180 -13 -69 -45
-117 -75 -113 -26 4 -66 79 -66 124 0 37 14 51 55 56 24 3 27 6 12 12 -9 5
-28 6 -40 2 -60 -15 -56 -125 6 -193 28 -31 50 -29 81 7 30 36 46 87 47 155 1
45 3 40 19 -46 10 -53 23 -106 29 -118 12 -21 41 -29 41 -11 0 6 -6 10 -14 10
-14 0 -18 12 -51 175 -17 81 -73 224 -88 225 -5 0 -5 -14 -2 -32z"/>
<path d="M2305 479 c-22 -4 -57 -8 -77 -8 -21 -1 -38 -5 -38 -11 0 -13 16 -13
117 2 46 7 83 16 83 20 0 10 -31 9 -85 -3z"/>
<path d="M1098 373 l-26 -68 -58 58 c-31 31 -59 55 -62 53 -8 -9 37 -63 77
-90 44 -31 44 -33 14 -141 -22 -76 -26 -105 -16 -105 8 0 31 82 48 168 8 37 5
36 41 17 33 -17 74 -20 74 -5 0 6 -13 10 -29 10 -16 0 -39 8 -51 18 l-23 19
26 58 c28 60 32 75 19 75 -4 0 -19 -30 -34 -67z"/>
</g>
</svg>
