<?xml version="1.0" standalone="no"?>
<!DOCTYPE svg PUBLIC "-//W3C//DTD SVG 20010904//EN"
 "http://www.w3.org/TR/2001/REC-SVG-20010904/DTD/svg10.dtd">
<svg version="1.0" xmlns="http://www.w3.org/2000/svg"
 width="300.000000pt" height="137.000000pt" viewBox="0 0 300.000000 137.000000"
 preserveAspectRatio="xMidYMid meet">
<metadata>
Created by potrace 1.10, written by Peter Selinger 2001-2011
</metadata>
<g transform="translate(0.000000,137.000000) scale(0.100000,-0.100000)"
fill="#BBBBBB" stroke="#BBBBBB" stroke-width="30px">
<path d="M2659 1219 l-52 -50 -32 31 c-44 43 -53 24 -9 -21 29 -30 34 -40 26
-55 -5 -11 -15 -46 -22 -79 -7 -33 -15 -65 -17 -72 -3 -7 2 -13 11 -13 10 0
16 8 16 21 0 21 29 141 35 148 2 2 30 -20 62 -48 61 -55 97 -71 116 -52 8 8 5
11 -10 11 -20 0 -144 90 -151 110 -5 12 66 88 89 95 22 7 26 25 5 25 -8 0 -38
-23 -67 -51z"/>
<path d="M2118 1228 c7 -7 39 -12 73 -13 55 0 63 -3 85 -30 20 -25 54 -110 54
-136 0 -4 -13 -2 -29 4 -36 13 -129 -5 -163 -33 -19 -15 -20 -20 -9 -34 31
-38 156 -45 207 -12 20 14 24 13 45 -10 34 -36 59 -48 72 -35 7 7 3 13 -14 20
-41 16 -77 63 -94 126 -23 78 -49 130 -77 149 -28 20 -170 24 -150 4z m197
-200 c34 -15 32 -26 -12 -45 -30 -12 -50 -13 -92 -7 -62 10 -75 26 -34 42 60
23 102 26 138 10z"/>
<path d="M1830 1033 c-70 -7 -102 -15 -94 -22 11 -11 244 9 244 21 0 8 -77 9
-150 1z"/>
<path d="M1513 851 c-67 -41 -142 -196 -143 -294 0 -40 5 -53 28 -77 42 -42
91 -47 178 -22 97 29 187 69 180 81 -4 6 -34 -3 -71 -20 -82 -37 -183 -61
-224 -53 -43 9 -71 47 -71 96 0 58 56 193 99 238 39 41 85 60 103 42 33 -33
-48 -157 -99 -150 -29 4 -31 -16 -2 -20 33 -6 66 17 99 67 64 97 16 168 -77
112z"/>
<path d="M576 838 c-3 -13 -8 -52 -11 -87 -8 -83 -33 -149 -102 -263 -77 -128
-108 -164 -202 -233 -75 -55 -94 -75 -72 -75 5 0 50 32 101 71 80 62 101 85
161 177 81 125 125 225 134 307 3 33 8 75 11 93 6 36 -13 45 -20 10z"/>
<path d="M80 813 c0 -29 71 -159 125 -228 51 -65 98 -95 150 -95 40 0 29 17
-15 24 -24 4 -54 19 -77 39 -46 40 -128 164 -150 228 -18 49 -33 64 -33 32z"/>
<path d="M861 718 c-24 -6 -31 -12 -23 -20 7 -7 20 -7 43 1 17 6 70 11 115 11
49 0 84 4 84 10 0 13 -173 12 -219 -2z"/>
<path d="M1025 550 c-49 -16 -105 -29 -122 -29 -18 -1 -33 -5 -33 -11 0 -18
67 -10 165 20 54 17 115 30 136 30 22 0 39 5 39 10 0 19 -95 9 -185 -20z"/>
</g>
</svg>
