<?xml version="1.0" standalone="no"?>
<!DOCTYPE svg PUBLIC "-//W3C//DTD SVG 20010904//EN"
 "http://www.w3.org/TR/2001/REC-SVG-20010904/DTD/svg10.dtd">
<svg version="1.0" xmlns="http://www.w3.org/2000/svg"
 width="300.000000pt" height="121.000000pt" viewBox="0 0 300.000000 121.000000"
 preserveAspectRatio="xMidYMid meet">
<metadata>
Created by potrace 1.10, written by Peter Selinger 2001-2011
</metadata>
<g transform="translate(0.000000,121.000000) scale(0.100000,-0.100000)"
fill="#BBBBBB" stroke="#BBBBBB" stroke-width="30px">
<path d="M1750 1166 c0 -8 13 -47 29 -88 16 -40 32 -99 36 -130 3 -32 11 -61
17 -64 6 -4 8 4 5 22 -3 16 -9 49 -13 74 -3 25 -17 72 -30 104 -13 33 -24 68
-24 78 0 10 -4 18 -10 18 -5 0 -10 -6 -10 -14z"/>
<path d="M147 1043 c-8 -10 -26 -52 -39 -93 -20 -66 -23 -94 -22 -225 1 -128
5 -165 28 -250 49 -188 166 -383 241 -404 39 -10 105 3 105 21 0 6 -7 7 -17 3
-60 -26 -114 -9 -156 47 -78 103 -140 246 -169 388 -27 130 -22 345 11 435 12
33 32 68 44 77 17 14 18 18 6 18 -9 0 -23 -8 -32 -17z"/>
<path d="M658 973 c38 -38 59 -72 96 -158 108 -247 119 -380 51 -600 -38 -125
-59 -170 -75 -160 -6 4 -10 -1 -10 -9 0 -22 13 -20 38 6 23 25 84 218 103 322
21 124 -21 307 -115 494 -45 89 -95 152 -122 152 -8 0 8 -21 34 -47z"/>
<path d="M1551 991 c-17 -17 -30 -52 -55 -146 -5 -18 -39 59 -38 87 0 16 -4
28 -9 28 -18 0 -8 -56 17 -100 16 -27 26 -60 26 -82 -1 -65 15 -41 21 31 11
133 44 195 91 173 26 -12 61 -80 71 -138 15 -92 17 -98 26 -82 17 30 -37 196
-73 225 -28 23 -57 24 -77 4z"/>
<path d="M250 848 c0 -13 5 -30 11 -38 8 -11 9 -8 4 15 -12 54 11 13 33 -60
20 -67 34 -132 36 -177 1 -23 26 -38 27 -16 0 7 2 40 3 73 3 66 35 151 62 162
26 10 50 -31 84 -139 21 -66 36 -98 46 -98 13 0 13 3 0 23 -8 12 -22 49 -31
82 -23 79 -50 132 -76 146 -17 9 -25 7 -44 -11 -26 -24 -55 -106 -56 -159 -1
-28 -4 -21 -14 32 -15 72 -41 153 -58 175 -15 19 -27 14 -27 -10z"/>
<path d="M1844 785 c-8 -19 12 -36 33 -28 19 7 12 37 -10 41 -9 2 -20 -4 -23
-13z"/>
<path d="M1975 617 c-38 -21 -51 -22 -272 -21 -128 0 -233 -3 -233 -8 0 -4 8
-8 18 -8 375 -5 437 -3 485 18 26 12 47 26 47 32 0 13 3 13 -45 -13z"/>
<path d="M1013 617 c-9 -16 4 -17 61 -6 31 5 66 7 76 4 12 -4 20 -2 20 5 0 13
-149 10 -157 -3z"/>
<path d="M2560 570 c0 -5 11 -10 25 -10 18 0 36 -15 70 -57 71 -91 83 -202 34
-310 -18 -42 -22 -46 -30 -28 -8 18 -8 18 -6 -4 4 -41 24 -34 48 16 20 41 24
63 24 148 0 113 -9 137 -77 211 -26 28 -49 44 -64 44 -13 0 -24 -4 -24 -10z"/>
<path d="M2780 561 c0 -5 4 -12 9 -16 12 -7 69 -178 77 -233 4 -23 11 -45 16
-48 15 -10 -3 78 -41 190 -20 61 -42 112 -48 114 -7 2 -13 -1 -13 -7z"/>
<path d="M2364 514 c25 -96 46 -216 46 -256 0 -34 4 -48 14 -48 14 0 26 21 26
43 0 7 -7 3 -15 -7 -14 -18 -15 -16 -15 28 0 26 3 46 8 44 69 -35 146 -67 150
-63 7 7 6 8 -75 45 -39 18 -75 40 -78 48 -8 21 26 66 54 70 26 4 28 22 2 22
-11 0 -31 -13 -44 -30 -29 -34 -27 -37 -48 63 -7 32 -17 61 -22 64 -6 4 -7 -5
-3 -23z"/>
<path d="M1854 465 c-20 -31 -15 -110 17 -225 33 -124 92 -204 136 -184 15 7
14 8 -9 12 -53 7 -98 96 -132 266 -18 86 -15 112 18 138 18 15 19 18 4 18 -10
0 -25 -11 -34 -25z"/>
<path d="M1050 469 c0 -12 60 -19 149 -18 80 1 82 2 36 9 -72 12 -185 17 -185
9z"/>
<path d="M1686 453 c14 -59 70 -197 81 -200 6 -2 -1 26 -17 64 -16 37 -34 89
-40 116 -7 26 -16 47 -21 47 -5 0 -6 -12 -3 -27z"/>
<path d="M1444 415 c-5 -19 3 -56 24 -119 16 -50 33 -110 37 -133 4 -24 11
-43 16 -43 13 0 30 38 20 45 -5 3 -12 -3 -14 -12 -3 -11 -5 -7 -6 10 0 16 -15
68 -32 115 -16 48 -29 101 -27 119 3 41 -9 54 -18 18z"/>
<path d="M443 407 c3 -8 15 -63 27 -123 25 -125 35 -149 46 -120 5 12 3 21 -4
24 -7 2 -12 13 -12 23 0 11 4 17 10 14 5 -3 35 -10 66 -15 31 -5 65 -17 75
-26 23 -21 34 -14 16 9 -7 10 -41 23 -86 31 -40 8 -78 19 -83 24 -23 23 2 60
62 97 33 20 58 41 55 45 -6 9 -99 -51 -121 -77 -9 -10 -14 0 -23 47 -7 33 -17
60 -23 60 -5 0 -8 -6 -5 -13z"/>
<path d="M1556 349 c-31 -33 -56 -66 -56 -74 0 -9 26 -22 68 -35 39 -12 74
-30 84 -43 15 -18 18 -19 18 -5 0 23 -34 44 -98 63 -29 9 -52 20 -52 25 0 5
25 36 56 69 31 34 52 61 46 61 -5 0 -35 -27 -66 -61z"/>
<path d="M2057 363 c-8 -10 -17 -36 -19 -58 l-4 -40 -23 50 c-13 28 -25 45
-28 38 -4 -11 65 -153 75 -153 2 0 1 28 -2 63 -5 47 -3 67 7 82 22 29 43 6 58
-61 7 -30 16 -57 21 -60 11 -7 10 -1 -8 69 -13 53 -34 86 -55 87 -3 0 -13 -8
-22 -17z"/>
<path d="M2175 340 c-4 -6 18 -10 59 -10 37 0 66 4 66 10 0 6 -26 10 -59 10
-33 0 -63 -4 -66 -10z"/>
<path d="M1792 143 c2 -10 10 -18 18 -18 8 0 16 8 18 18 2 12 -3 17 -18 17
-15 0 -20 -5 -18 -17z"/>
</g>
</svg>
