<?xml version="1.0" standalone="no"?>
<!DOCTYPE svg PUBLIC "-//W3C//DTD SVG 20010904//EN"
 "http://www.w3.org/TR/2001/REC-SVG-20010904/DTD/svg10.dtd">
<svg version="1.0" xmlns="http://www.w3.org/2000/svg"
 width="300.000000pt" height="118.000000pt" viewBox="0 0 300.000000 118.000000"
 preserveAspectRatio="xMidYMid meet">
<metadata>
Created by potrace 1.10, written by Peter Selinger 2001-2011
</metadata>
<g transform="translate(0.000000,118.000000) scale(0.100000,-0.100000)"
fill="#BBBBBB" stroke="#BBBBBB" stroke-width="30px">
<path d="M525 1059 c-71 -10 -194 -47 -283 -84 -42 -18 -72 -24 -91 -20 -19 4
-35 0 -51 -13 -21 -17 -23 -26 -22 -118 0 -69 9 -133 26 -209 14 -60 42 -189
62 -284 19 -96 37 -179 40 -183 13 -20 32 -5 38 29 10 66 7 103 -9 103 -11 0
-15 -12 -16 -47 -1 -36 -7 -16 -24 82 -13 72 -37 186 -54 255 -36 141 -51 303
-32 338 9 17 21 22 55 22 25 0 68 11 102 26 95 42 174 64 252 71 61 5 72 9 72
24 0 11 -1 18 -2 18 -2 -1 -30 -5 -63 -10z"/>
<path d="M1131 835 c-71 -22 -181 -78 -181 -92 0 -18 -2 -18 90 26 102 50 181
69 220 54 22 -8 30 -8 34 2 2 7 -2 16 -10 19 -27 10 -107 5 -153 -9z"/>
<path d="M1806 757 c-13 -13 -32 -51 -41 -83 -33 -113 -33 -113 -34 -31 -1 49
-5 76 -11 72 -6 -4 -10 -58 -10 -131 0 -102 3 -124 15 -124 9 0 17 14 21 38
12 69 36 157 56 205 16 36 26 47 43 47 42 0 95 -92 95 -165 0 -37 3 -45 18
-45 25 0 43 22 81 98 49 96 100 103 154 20 22 -34 33 -63 63 -165 2 -7 9 -13
15 -13 31 0 -29 167 -80 221 -69 72 -129 49 -186 -73 -15 -32 -31 -58 -36 -58
-5 0 -9 17 -9 38 0 39 -37 129 -61 149 -31 26 -67 26 -93 0z"/>
<path d="M555 714 c-85 -40 -202 -80 -273 -94 -70 -13 -111 -4 -118 26 -3 13
-13 24 -21 24 -10 0 -12 -6 -8 -22 20 -69 103 -76 259 -24 117 39 246 95 246
107 0 18 -19 14 -85 -17z"/>
<path d="M2598 739 c-56 -32 -97 -183 -64 -234 20 -30 65 -34 89 -7 24 27 56
103 57 137 l1 30 11 -25 c26 -64 101 -210 107 -210 20 0 14 18 -41 127 -32 64
-58 126 -58 139 0 22 -16 41 -26 31 -3 -3 -9 -32 -14 -65 -14 -100 -63 -179
-94 -153 -40 33 -21 136 35 192 21 21 39 41 39 44 0 8 -24 5 -42 -6z"/>
<path d="M1347 556 c-4 -9 -29 -15 -79 -18 -54 -3 -91 -12 -145 -36 -39 -18
-88 -32 -108 -32 -25 0 -35 -4 -33 -12 8 -25 56 -19 141 16 59 25 101 36 136
36 70 0 120 22 121 53 0 13 -28 7 -33 -7z"/>
</g>
</svg>
