<?xml version="1.0" standalone="no"?>
<!DOCTYPE svg PUBLIC "-//W3C//DTD SVG 20010904//EN"
 "http://www.w3.org/TR/2001/REC-SVG-20010904/DTD/svg10.dtd">
<svg version="1.0" xmlns="http://www.w3.org/2000/svg"
 width="300.000000pt" height="119.000000pt" viewBox="0 0 300.000000 119.000000"
 preserveAspectRatio="xMidYMid meet">
<metadata>
Created by potrace 1.10, written by Peter Selinger 2001-2011
</metadata>
<g transform="translate(0.000000,119.000000) scale(0.100000,-0.100000)"
fill="#BBBBBB" stroke="#BBBBBB" stroke-width="30px">
<path d="M616 1123 c-12 -12 -6 -43 9 -43 8 0 15 9 15 19 0 21 -13 34 -24 24z"/>
<path d="M935 1005 c-27 -7 -69 -14 -92 -14 -54 -1 -57 -21 -3 -21 l40 0 0
-49 c0 -49 16 -150 25 -159 13 -13 13 10 0 83 -21 118 -20 135 9 135 21 0 32
-16 82 -119 55 -111 74 -140 74 -108 0 6 -27 63 -59 125 l-59 113 29 6 c16 3
29 9 29 14 0 11 -12 10 -75 -6z"/>
<path d="M614 937 c10 -78 30 -150 44 -155 14 -4 16 30 2 44 -6 6 -16 45 -22
87 -14 86 -34 107 -24 24z"/>
<path d="M1650 773 c0 -51 28 -147 75 -258 26 -60 65 -161 87 -223 22 -61 44
-112 49 -112 5 0 9 1 9 3 0 9 -93 256 -129 341 -45 108 -71 197 -71 245 0 17
-4 31 -10 31 -5 0 -10 -12 -10 -27z"/>
<path d="M330 715 c-132 -94 -159 -325 -54 -463 42 -54 101 -92 146 -92 44 0
165 26 188 40 29 18 4 18 -65 0 -99 -27 -153 -25 -196 4 -141 96 -160 346 -34
471 68 68 130 64 161 -10 20 -48 18 -84 -8 -135 -27 -53 -54 -68 -137 -76 -35
-4 -58 -11 -55 -16 8 -13 110 0 150 18 57 27 93 122 74 194 -24 88 -97 116
-170 65z"/>
<path d="M2485 706 c-65 -16 -75 -35 -75 -156 0 -205 97 -410 208 -440 56 -14
127 9 174 57 42 43 53 67 62 138 20 148 -111 360 -246 400 -58 17 -55 17 -123
1z m129 -22 c122 -42 241 -245 222 -380 -12 -90 -58 -147 -140 -174 -83 -27
-152 24 -212 155 -41 91 -54 155 -54 268 1 86 2 93 25 110 14 10 26 13 30 7 3
-5 11 -10 17 -10 7 0 6 5 -1 14 -23 27 45 33 113 10z"/>
<path d="M1200 608 c0 -39 11 -102 26 -150 5 -16 -2 -18 -55 -18 -50 0 -62 3
-75 22 -17 23 -32 19 -22 -7 8 -23 54 -37 109 -34 l48 3 25 -75 c25 -73 47
-109 60 -96 4 4 0 15 -8 24 -14 16 -62 144 -55 148 1 1 35 12 75 25 40 12 75
27 78 32 9 14 -4 22 -18 11 -17 -13 -106 -43 -128 -43 -19 0 -40 81 -40 157 0
24 -4 43 -10 43 -5 0 -10 -19 -10 -42z"/>
<path d="M2138 513 c-98 -4 -122 -23 -29 -23 84 0 181 11 181 21 0 5 -15 8
-32 7 -18 -1 -72 -4 -120 -5z"/>
<path d="M2126 288 c7 -11 264 -10 264 2 0 5 -54 9 -135 8 -74 -1 -132 -5
-129 -10z"/>
</g>
</svg>
