<?xml version="1.0" standalone="no"?>
<!DOCTYPE svg PUBLIC "-//W3C//DTD SVG 20010904//EN"
 "http://www.w3.org/TR/2001/REC-SVG-20010904/DTD/svg10.dtd">
<svg version="1.0" xmlns="http://www.w3.org/2000/svg"
 width="300.000000pt" height="100.000000pt" viewBox="0 0 300.000000 100.000000"
 preserveAspectRatio="xMidYMid meet">
<metadata>
Created by potrace 1.10, written by Peter Selinger 2001-2011
</metadata>
<g transform="translate(0.000000,100.000000) scale(0.100000,-0.100000)"
fill="#BBBBBB" stroke="#BBBBBB" stroke-width="20px">
<path d="M886 870 c-20 -22 -46 -61 -58 -85 -20 -42 -25 -45 -61 -45 -25 0
-36 -4 -31 -11 3 -6 21 -9 39 -7 29 3 34 0 55 -39 13 -24 27 -43 31 -43 14 0
11 12 -11 45 -27 41 -25 45 14 45 36 0 92 17 84 25 -3 3 -29 1 -58 -5 -29 -6
-55 -8 -57 -6 -8 7 35 82 66 115 23 25 36 31 52 26 15 -5 20 -3 17 6 -10 29
-45 20 -82 -21z"/>
<path d="M168 818 c6 -143 31 -351 43 -362 9 -8 10 -3 6 24 -9 55 -27 258 -30
334 -1 38 -7 71 -12 73 -7 2 -9 -22 -7 -69z"/>
<path d="M1059 793 c-39 -68 -52 -160 -26 -182 18 -14 69 -11 74 5 2 6 -10 8
-31 6 -29 -3 -34 0 -40 21 -8 33 16 110 48 152 27 35 33 55 17 55 -5 0 -24
-26 -42 -57z"/>
<path d="M2536 819 c-9 -46 -7 -99 3 -99 10 0 20 120 10 126 -4 2 -9 -10 -13
-27z"/>
<path d="M1320 814 c0 -3 11 -19 25 -36 42 -50 28 -130 -36 -203 -39 -44 -32
-57 8 -16 61 60 87 154 59 209 -15 28 -56 62 -56 46z"/>
<path d="M2410 768 c-11 -18 -25 -47 -31 -65 -10 -31 -15 -35 -71 -47 -16 -4
-28 -11 -28 -17 0 -7 7 -8 18 -4 9 3 28 9 42 11 24 5 25 4 22 -39 -3 -37 0
-47 19 -60 12 -9 27 -13 33 -10 5 4 0 11 -12 16 -18 8 -22 18 -22 54 0 27 5
43 13 44 30 3 63 -4 69 -14 4 -6 10 -8 14 -4 14 13 -19 37 -52 37 -19 0 -34 4
-34 9 0 14 39 101 45 101 3 0 1 -9 -5 -19 -12 -23 -13 -31 -2 -31 7 0 32 47
32 62 0 20 -32 5 -50 -24z"/>
<path d="M2885 791 c-3 -6 -1 -11 5 -11 22 0 43 -73 37 -133 -6 -72 -27 -104
-83 -128 -24 -11 -44 -24 -44 -29 0 -14 5 -13 61 16 37 18 54 35 65 60 22 51
27 114 15 160 -12 45 -45 82 -56 65z"/>
<path d="M2632 713 c-53 -77 -58 -89 -44 -109 11 -16 55 -44 69 -44 23 0 14
15 -17 27 -48 18 -47 37 2 111 57 85 61 92 50 92 -5 0 -32 -34 -60 -77z"/>
<path d="M1140 759 c0 -6 7 -26 16 -45 15 -32 15 -36 0 -53 -9 -9 -16 -24 -16
-32 0 -8 10 -2 23 14 20 25 25 27 50 18 35 -13 37 -13 37 -1 0 5 -11 12 -25
16 -33 8 -32 18 7 45 19 14 26 25 19 27 -7 2 -26 -8 -41 -23 l-29 -28 -11 27
c-5 15 -10 32 -10 37 0 5 -4 9 -10 9 -5 0 -10 -5 -10 -11z"/>
<path d="M2750 743 c0 -3 7 -15 16 -24 16 -17 15 -21 -10 -53 -28 -37 -31 -46
-17 -46 5 0 19 16 32 36 l22 36 19 -31 c11 -17 24 -28 29 -25 5 3 -1 18 -13
34 -20 28 -20 31 -5 48 24 26 21 39 -3 17 -19 -17 -21 -17 -38 -2 -19 18 -32
22 -32 10z"/>
<path d="M1867 713 c-4 -3 1 -12 11 -19 15 -11 17 -31 17 -147 0 -75 3 -139 8
-143 11 -11 8 275 -3 297 -11 20 -22 24 -33 12z"/>
<path d="M330 631 c0 -48 10 -102 19 -97 10 6 0 136 -10 136 -5 0 -9 -17 -9
-39z"/>
<path d="M468 616 c-13 -9 -18 -27 -18 -60 0 -29 4 -45 10 -41 6 3 10 18 10
33 0 15 5 34 10 42 8 12 10 11 10 -6 0 -11 6 -28 13 -38 12 -16 15 -15 51 13
57 45 61 43 57 -31 -2 -23 2 -38 9 -38 7 0 10 19 8 57 -4 72 -22 79 -76 32
-33 -29 -37 -31 -40 -13 -10 68 -14 73 -44 50z"/>
<path d="M1586 591 c-16 -3 -31 -11 -33 -18 -3 -9 5 -9 34 -1 21 6 62 8 91 5
46 -5 52 -4 41 9 -12 15 -78 17 -133 5z"/>
<path d="M2186 536 c-37 -40 -56 -40 -56 0 0 29 -25 32 -40 5 -5 -11 -10 -35
-9 -53 l1 -33 12 37 c14 47 26 58 26 24 0 -43 27 -43 71 0 l39 38 0 -53 c0
-36 3 -50 11 -45 14 8 6 91 -10 107 -7 7 -20 0 -45 -27z"/>
<path d="M1990 495 c0 -25 5 -45 10 -45 6 0 10 20 10 45 0 25 -4 45 -10 45 -5
0 -10 -20 -10 -45z"/>
<path d="M810 503 c0 -12 207 -23 422 -23 92 0 148 4 148 10 0 6 -71 10 -193
10 -107 0 -235 3 -285 6 -59 5 -92 3 -92 -3z"/>
<path d="M1675 459 c-22 -5 -58 -8 -80 -8 -57 1 -62 0 -45 -11 8 -5 26 -10 39
-10 44 0 151 22 151 31 0 10 -9 10 -65 -2z"/>
<path d="M2356 441 c-9 -14 52 -31 114 -31 31 0 101 -7 156 -15 101 -15 240
-20 268 -9 32 12 5 21 -39 13 -30 -6 -84 -3 -163 7 -64 9 -157 18 -207 21 -49
3 -98 9 -107 14 -10 5 -19 5 -22 0z"/>
<path d="M1056 397 c-33 -55 -42 -100 -24 -114 19 -15 57 -23 63 -13 3 5 -8
11 -25 15 -41 9 -40 39 4 104 23 34 30 51 21 51 -8 0 -26 -19 -39 -43z"/>
<path d="M852 398 c-32 -35 -44 -74 -27 -88 11 -9 27 -6 71 14 67 31 74 32 74
9 -1 -40 -82 -100 -121 -90 -24 6 -36 -11 -14 -19 26 -10 88 13 117 43 34 36
41 65 24 88 -13 18 -15 18 -74 -8 -33 -15 -62 -27 -65 -27 -10 0 14 58 29 71
11 9 17 9 29 -1 9 -7 19 -10 23 -6 6 7 -24 36 -38 36 -4 0 -16 -10 -28 -22z"/>
<path d="M1300 400 c0 -5 6 -10 14 -10 25 0 39 -30 38 -80 -1 -60 -25 -110
-52 -110 -11 0 -20 -4 -20 -10 0 -13 26 -13 50 0 42 23 56 164 20 200 -21 21
-50 27 -50 10z"/>
<path d="M1140 367 c0 -8 9 -22 20 -32 l20 -18 -22 -24 c-15 -16 -17 -23 -7
-23 8 0 20 9 26 19 10 16 20 18 54 14 30 -4 40 -3 35 5 -4 7 -19 12 -34 12
l-27 1 30 24 c16 13 27 27 23 30 -3 3 -20 -6 -37 -21 -26 -21 -34 -24 -46 -14
-8 7 -15 19 -15 26 0 8 -4 14 -10 14 -5 0 -10 -6 -10 -13z"/>
<path d="M2580 295 c0 -25 5 -45 10 -45 6 0 10 20 10 45 0 25 -4 45 -10 45 -5
0 -10 -20 -10 -45z"/>
<path d="M2887 313 c-3 -5 3 -17 14 -26 35 -30 14 -135 -38 -189 -21 -22 -23
-28 -11 -28 33 0 88 111 88 176 0 26 -44 82 -53 67z"/>
<path d="M2675 283 c-10 -15 -20 -46 -23 -69 -3 -33 0 -46 17 -63 11 -11 29
-21 39 -21 13 0 10 6 -12 23 -26 21 -29 28 -23 66 3 23 12 50 21 60 18 20 20
31 7 31 -5 0 -17 -12 -26 -27z"/>
<path d="M2819 267 c-14 -18 -19 -20 -32 -9 -9 8 -18 9 -21 4 -3 -6 1 -15 9
-22 14 -12 13 -16 -6 -36 -12 -13 -19 -27 -15 -31 4 -4 17 5 29 21 21 25 24
26 36 12 7 -9 18 -16 24 -16 6 0 1 10 -11 23 l-22 24 20 18 c20 18 26 35 13
35 -5 -1 -15 -11 -24 -23z"/>
<path d="M2403 263 c-31 -6 -46 -29 -39 -58 8 -30 44 -41 87 -26 39 13 76 14
84 2 7 -12 -48 -64 -92 -88 -27 -15 -37 -15 -53 -5 -17 10 -20 10 -20 -3 0
-41 74 -24 139 32 33 27 41 41 39 62 -3 28 -8 29 -118 20 -40 -4 -45 -2 -48
18 -3 19 3 23 37 29 23 4 41 10 41 15 0 9 -18 10 -57 2z"/>
<circle cx="350" cy="800" r="25"/>
<circle cx="2000" cy="700" r="25"/>
</g>
</svg>
